<svg width="81" height="113" viewBox="0 0 81 113" version="1.1" xmlns="http://www.w3.org/2000/svg" xmlns:xlink="http://www.w3.org/1999/xlink">
<title>Saint Logo</title>
<desc>Created using Figma</desc>
<g id="Canvas" transform="translate(864 545)">
<g id="Saint Logo">
<g id="Vector">
<use xlink:href="#path0_fill" transform="translate(-864 -520.377)" fill="#FFFFFF"/>
</g>
<g id="Vector 2">
<use xlink:href="#path1_fill" transform="translate(-856 -545)" fill="#FFFFFF"/>
</g>
</g>
</g>
<defs>
<path id="path0_fill" fill-rule="evenodd" d="M 1.82871 53.9682C -2.47896 62.4223 1.31562 72.1982 8.08482 81.3026C 14.854 90.407 33.9308 91.0574 44.3923 81.3026C 54.8538 71.5479 65.3153 53.3391 65.3153 42.2837C 65.3153 39.6888 65.4509 36.9863 65.5869 34.2774C 66.0301 25.4451 66.4768 16.543 62.2384 11.0686C 57.8077 5.34581 48.4949 1.31385 44.3923 0.0132193C 29.5548 -0.311312 24.5494 5.3146 20.0336 19.6496C 18.6745 23.9638 17.3221 29.0444 14.9932 34.3769C 12.6643 39.7093 6.13638 45.5141 1.82871 53.9682ZM 38.2385 21.4736C 39.1436 14.7783 40.7001 7.817 41.9308 5.21574C 43.2822 6.82238 43.2425 11.1634 43.1864 17.2946C 43.1744 18.6085 43.1616 20.0046 43.1616 21.4736C 43.1616 31.8787 38.2385 42.2837 34.5462 49.4372C 30.2557 57.7497 26.4471 64.9188 23.4694 67.646C 22.5554 68.4831 21.5785 69.4371 20.5668 70.4252C 17.4915 73.4285 14.0944 76.7462 11.1618 78.0511C 11.9739 76.1915 14.1259 73.2747 16.2032 70.4592C 17.2738 69.0081 18.3245 67.584 19.1617 66.3454C 22.2386 61.7932 27.7299 52.805 29.6232 48.1366C 29.9507 47.329 30.2782 46.5266 30.604 45.7284C 33.9511 37.5273 37.1169 29.7705 38.2385 21.4736Z"/>
<path id="path1_fill" fill-rule="evenodd" d="M 40.2732 22C 30.247 22 2.17374 20.733 0.168504 14.5131C -1.83673 8.29319 14.2052 0 40.2732 0C 61.1277 0 76.3675 11.6335 72.357 15.7801C 68.3466 19.9267 51.6362 22 40.2732 22ZM 7.40345 13.3037C 5.58273 9.42835 21.9104 6.33507 40.2732 6.33507C 57.2316 6.33507 69.7202 11.5183 64.1697 14.5131C 61.8214 15.7801 55.3394 16.9573 40.2732 16.9573C 25.207 16.9573 8.56695 15.7801 7.40345 13.3037Z"/>
</defs>
</svg>
